<svg width="16" height="17" viewBox="0 0 16 17" fill="none" xmlns="http://www.w3.org/2000/svg">
<path d="M8.21063 7.23988C7.64826 7.23396 7.10022 7.06179 6.63551 6.74505C6.17079 6.42832 5.81017 5.98117 5.59906 5.4599C5.38794 4.93864 5.33576 4.36657 5.44909 3.81571C5.56243 3.26486 5.8362 2.75985 6.23595 2.36426C6.6357 1.96868 7.14355 1.70021 7.69556 1.59265C8.24757 1.48509 8.81907 1.54325 9.33809 1.75982C9.85711 1.97638 10.3005 2.34166 10.6123 2.80967C10.9242 3.27768 11.0906 3.82749 11.0906 4.38988C11.0853 5.14932 10.7793 5.8757 10.2394 6.40989C9.69962 6.94409 8.97008 7.24255 8.21063 7.23988ZM8.21063 2.53988C7.84607 2.54579 7.49138 2.6593 7.19112 2.86614C6.89086 3.07298 6.65842 3.36394 6.52299 3.70246C6.38755 4.04098 6.35517 4.41197 6.42991 4.76884C6.50464 5.1257 6.68316 5.45253 6.94304 5.70826C7.20292 5.964 7.53258 6.13724 7.8906 6.20622C8.24862 6.27521 8.61905 6.23686 8.95535 6.096C9.29164 5.95514 9.57882 5.71805 9.78081 5.4145C9.98279 5.11095 10.0906 4.75449 10.0906 4.38988C10.0853 3.89566 9.88463 3.42364 9.53234 3.07697C9.18006 2.73031 8.70486 2.53721 8.21063 2.53988Z" fill="black"/>
<path d="M8.21039 7.23988C7.64803 7.23396 7.09999 7.06179 6.63527 6.74505C6.17055 6.42832 5.80994 5.98117 5.59882 5.4599C5.3877 4.93864 5.33553 4.36657 5.44886 3.81571C5.56219 3.26486 5.83597 2.75985 6.23571 2.36426C6.63546 1.96868 7.14331 1.70021 7.69532 1.59265C8.24733 1.48509 8.81883 1.54325 9.33785 1.75982C9.85688 1.97638 10.3002 2.34166 10.6121 2.80967C10.9239 3.27768 11.0904 3.82749 11.0904 4.38988C11.0851 5.14932 10.779 5.8757 10.2392 6.40989C9.69938 6.94409 8.96984 7.24255 8.21039 7.23988ZM8.21039 2.53988C7.84583 2.54579 7.49115 2.6593 7.19089 2.86614C6.89063 3.07298 6.65818 3.36394 6.52275 3.70246C6.38732 4.04098 6.35493 4.41197 6.42967 4.76884C6.5044 5.1257 6.68292 5.45253 6.94281 5.70826C7.20269 5.964 7.53234 6.13724 7.89036 6.20622C8.24839 6.27521 8.61881 6.23686 8.95511 6.096C9.29141 5.95514 9.57859 5.71805 9.78057 5.4145C9.98256 5.11095 10.0903 4.75449 10.0904 4.38988C10.0851 3.89566 9.88439 3.42364 9.53211 3.07697C9.17982 2.73031 8.70463 2.53721 8.21039 2.53988ZM9.95539 7.90988C7.73766 7.52397 5.45457 7.87522 3.45539 8.90988C3.31348 8.98868 3.19597 9.10499 3.11572 9.24608C3.03547 9.38718 2.99557 9.54763 3.00039 9.70988V11.4899C3.00039 11.6225 3.05307 11.7497 3.14684 11.8434C3.2406 11.9372 3.36778 11.9899 3.50039 11.9899C3.633 11.9899 3.76018 11.9372 3.85394 11.8434C3.94771 11.7497 4.00039 11.6225 4.00039 11.4899V9.77488C5.85422 8.8447 7.96238 8.54956 10.0004 8.93488L9.95539 7.90988Z" fill="black"/>
<path d="M15.5 10.0852H12.15V9.34521C12.15 9.21261 12.0973 9.08543 12.0036 8.99166C11.9098 8.89789 11.7826 8.84521 11.65 8.84521C11.5174 8.84521 11.3902 8.89789 11.2964 8.99166C11.2027 9.08543 11.15 9.21261 11.15 9.34521V10.0852H7.5C7.36739 10.0852 7.24021 10.1379 7.14645 10.2317C7.05268 10.3254 7 10.4526 7 10.5852V15.5852C7 15.7178 7.05268 15.845 7.14645 15.9388C7.24021 16.0325 7.36739 16.0852 7.5 16.0852H15.5C15.6326 16.0852 15.7598 16.0325 15.8536 15.9388C15.9473 15.845 16 15.7178 16 15.5852V10.5852C16 10.4526 15.9473 10.3254 15.8536 10.2317C15.7598 10.1379 15.6326 10.0852 15.5 10.0852ZM15 15.0852H8V11.0852H11.15V11.2902C11.15 11.4228 11.2027 11.55 11.2964 11.6438C11.3902 11.7375 11.5174 11.7902 11.65 11.7902C11.7826 11.7902 11.9098 11.7375 12.0036 11.6438C12.0973 11.55 12.15 11.4228 12.15 11.2902V11.0852H15V15.0852Z" fill="black"/>
<path d="M9.905 12.795H12.885V13.495H9.905V12.795ZM4.42 5.20502C3.03572 5.22818 1.67545 5.57039 0.445 6.20502C0.311181 6.2757 0.199089 6.38143 0.120707 6.51089C0.0423261 6.64035 0.000603424 6.78868 0 6.94002V8.49002C0 8.62263 0.0526784 8.7498 0.146447 8.84357C0.240215 8.93734 0.367392 8.99002 0.5 8.99002C0.632608 8.99002 0.759785 8.93734 0.853553 8.84357C0.947321 8.7498 1 8.62263 1 8.49002V7.04002C2.17565 6.45483 3.47728 6.16806 4.79 6.20502C4.61825 5.89165 4.49358 5.55471 4.42 5.20502ZM15.555 6.20002C14.4514 5.62112 13.2386 5.28044 11.995 5.20002C11.9218 5.54909 11.7989 5.88585 11.63 6.20002C12.8015 6.22806 13.9524 6.51491 15 7.04002V8.49002C15 8.62263 15.0527 8.7498 15.1464 8.84357C15.2402 8.93734 15.3674 8.99002 15.5 8.99002C15.6326 8.99002 15.7598 8.93734 15.8536 8.84357C15.9473 8.7498 16 8.62263 16 8.49002V6.94002C16.0003 6.78783 15.959 6.63845 15.8806 6.50803C15.8021 6.37761 15.6896 6.2711 15.555 6.20002ZM4.33 4.39002V4.05502C3.93831 4.0026 3.58192 3.80114 3.33503 3.49257C3.08815 3.184 2.96978 2.7921 3.00457 2.39845C3.03936 2.0048 3.22463 1.63973 3.52181 1.37925C3.81899 1.11876 4.20519 0.982927 4.6 1.00002C5.01066 0.999276 5.40537 1.15895 5.7 1.44502C5.95995 1.23061 6.24545 1.04923 6.55 0.90502C6.20981 0.513848 5.75907 0.234939 5.25719 0.105055C4.75532 -0.0248294 4.22586 0.00040774 3.73862 0.17744C3.25138 0.354472 2.82921 0.67499 2.52776 1.09675C2.22632 1.5185 2.05975 2.0217 2.05 2.54002C2.06049 3.1744 2.3071 3.78208 2.74165 4.24437C3.1762 4.70666 3.76748 4.99034 4.4 5.04002C4.35758 4.82583 4.33416 4.60832 4.33 4.39002ZM11.385 2.00381e-05C11.0414 9.56815e-05 10.7013 0.068673 10.3845 0.201742C10.0677 0.334812 9.78059 0.529703 9.54 0.77502C9.87802 0.897505 10.1977 1.06574 10.49 1.27502C10.7234 1.11298 10.9964 1.01734 11.28 0.998274C11.5635 0.979212 11.8468 1.03745 12.0999 1.16678C12.3529 1.29611 12.566 1.49168 12.7166 1.73264C12.8672 1.9736 12.9496 2.25092 12.955 2.53502C12.9519 2.82684 12.8661 3.1118 12.7077 3.35691C12.5493 3.60202 12.3248 3.79726 12.06 3.92002C12.0801 4.0742 12.0901 4.22953 12.09 4.38502C12.0887 4.586 12.0719 4.78659 12.04 4.98502C12.5847 4.84499 13.0678 4.52881 13.4142 4.0857C13.7605 3.64259 13.9507 3.09741 13.955 2.53502C13.9484 1.85867 13.6744 1.21242 13.1929 0.737439C12.7113 0.262456 12.0614 -0.00265427 11.385 2.00381e-05Z" fill="black"/>
</svg>
