<svg width="13" height="8" viewBox="0 0 13 8" fill="none" xmlns="http://www.w3.org/2000/svg">
<path d="M7.1783 7.37384C6.79524 7.72746 6.20477 7.72746 5.8217 7.37384L0.796251 2.73469C0.367217 2.33864 0.367336 1.66079 0.796509 1.26488L1.48929 0.625812C1.87243 0.272371 2.4628 0.272527 2.84576 0.62617L5.82157 3.3742C6.20467 3.72799 6.79533 3.72799 7.17843 3.3742L10.1542 0.62617C10.5372 0.272526 11.1276 0.272371 11.5107 0.625812L12.2035 1.26488C12.6327 1.66079 12.6328 2.33863 12.2038 2.73469L7.1783 7.37384Z" fill="white"/>
<path d="M7.1783 7.37384C6.79524 7.72746 6.20477 7.72746 5.8217 7.37384L0.796251 2.73469C0.367217 2.33864 0.367336 1.66079 0.796509 1.26488L1.48929 0.625812C1.87243 0.272371 2.4628 0.272527 2.84576 0.62617L5.82157 3.3742C6.20467 3.72799 6.79533 3.72799 7.17843 3.3742L10.1542 0.62617C10.5372 0.272526 11.1276 0.272371 11.5107 0.625812L12.2035 1.26488C12.6327 1.66079 12.6328 2.33863 12.2038 2.73469L7.1783 7.37384Z" stroke="white"/>
</svg>
