<svg width="25" height="17" viewBox="0 0 25 17" fill="none" xmlns="http://www.w3.org/2000/svg">
<path d="M1.38889 17H23.6111C24.375 17 25 16.3625 25 15.5833C25 14.8042 24.375 14.1667 23.6111 14.1667H1.38889C0.625 14.1667 0 14.8042 0 15.5833C0 16.3625 0.625 17 1.38889 17ZM1.38889 9.91667H23.6111C24.375 9.91667 25 9.27917 25 8.5C25 7.72083 24.375 7.08333 23.6111 7.08333H1.38889C0.625 7.08333 0 7.72083 0 8.5C0 9.27917 0.625 9.91667 1.38889 9.91667ZM0 1.41667C0 2.19583 0.625 2.83333 1.38889 2.83333H23.6111C24.375 2.83333 25 2.19583 25 1.41667C25 0.6375 24.375 0 23.6111 0H1.38889C0.625 0 0 0.6375 0 1.41667Z" fill="white"/>
</svg>
