<svg width="15" height="17" viewBox="0 0 15 17" fill="none" xmlns="http://www.w3.org/2000/svg">
<path d="M14.7528 14.8338C14.2699 14.3586 13.8471 13.8137 13.4959 13.2139C13.1124 12.386 12.8825 11.4819 12.8198 10.5546V7.8234C12.8178 7.49165 12.791 7.16065 12.7397 6.83375C12.3455 6.74677 11.9667 6.58994 11.618 6.36934C11.7509 6.84196 11.8184 7.33404 11.8183 7.82893V10.5601C11.8796 11.6913 12.1615 12.7946 12.6445 13.7944C12.9903 14.3993 13.4005 14.9561 13.8664 15.4531H1.04161C1.50753 14.9561 1.91776 14.3993 2.2635 13.7944C2.74655 12.7946 3.0284 11.6913 3.08977 10.5601V7.8234C3.08714 7.18355 3.19885 6.54941 3.4185 5.95729C3.63816 5.36518 3.96145 4.82671 4.36986 4.37273C4.77827 3.91874 5.26378 3.55816 5.7986 3.31162C6.33341 3.06509 6.90701 2.93744 7.48657 2.93599C8.33476 2.93674 9.16392 3.21368 9.87025 3.73213C9.79238 3.41643 9.74868 3.09166 9.74005 2.7646V2.41629C9.21717 2.13231 8.65544 1.94551 8.07748 1.86342V1.1668C8.07748 0.971045 8.00705 0.78331 7.88167 0.644892C7.7563 0.506473 7.58625 0.428711 7.40895 0.428711C7.23164 0.428711 7.0616 0.506473 6.93622 0.644892C6.81085 0.78331 6.74042 0.971045 6.74042 1.1668V1.89106C5.44627 2.09261 4.26187 2.80427 3.40587 3.89464C2.54987 4.98501 2.08008 6.38047 2.08322 7.8234V10.5546C2.0205 11.4819 1.79066 12.386 1.40717 13.2139C1.06208 13.8123 0.646096 14.3571 0.170263 14.8338C0.116846 14.8856 0.0740351 14.9494 0.0446778 15.0209C0.0153204 15.0924 9.00373e-05 15.17 0 15.2485V16.0004C0 16.147 0.0527599 16.2877 0.146673 16.3913C0.240587 16.495 0.36796 16.5533 0.500774 16.5533H14.4223C14.5551 16.5533 14.6825 16.495 14.7764 16.3913C14.8703 16.2877 14.9231 16.147 14.9231 16.0004V15.2485C14.923 15.17 14.9077 15.0924 14.8784 15.0209C14.849 14.9494 14.8062 14.8856 14.7528 14.8338Z" fill="white"/>
</svg>
