<svg width="23" height="16" viewBox="0 0 23 16" fill="none" xmlns="http://www.w3.org/2000/svg">
<path d="M11.5 0C6.27273 0 1.80864 3.31733 0 8C1.80864 12.6827 6.27273 16 11.5 16C16.7273 16 21.1914 12.6827 23 8C21.1914 3.31733 16.7273 0 11.5 0ZM11.5 13.3333C8.61454 13.3333 6.27273 10.944 6.27273 8C6.27273 5.056 8.61454 2.66667 11.5 2.66667C14.3855 2.66667 16.7273 5.056 16.7273 8C16.7273 10.944 14.3855 13.3333 11.5 13.3333ZM11.5 4.8C9.76455 4.8 8.36364 6.22933 8.36364 8C8.36364 9.77067 9.76455 11.2 11.5 11.2C13.2355 11.2 14.6364 9.77067 14.6364 8C14.6364 6.22933 13.2355 4.8 11.5 4.8Z" fill="#9F9F9F" fill-opacity="0.72"/>
</svg>
